<?xml version="1.0" standalone="no"?>
<!DOCTYPE svg PUBLIC "-//W3C//DTD SVG 20010904//EN"
 "http://www.w3.org/TR/2001/REC-SVG-20010904/DTD/svg10.dtd">
<svg version="1.0" xmlns="http://www.w3.org/2000/svg"
 width="225.000000pt" height="225.000000pt" viewBox="0 0 225.000000 225.000000"
 preserveAspectRatio="xMidYMid meet">

<g transform="translate(0.000000,225.000000) scale(0.100000,-0.100000)"
fill="#000000" stroke="none">
<path d="M697 1883 c-8 -16 -27 -62 -42 -103 -15 -41 -32 -79 -36 -84 -5 -6
-29 -18 -54 -27 l-45 -17 -96 39 c-53 21 -104 39 -113 39 -20 0 -131 -108
-131 -127 0 -7 18 -53 40 -102 45 -101 46 -101 24 -156 -14 -39 -20 -43 -122
-86 l-107 -44 -3 -91 -3 -92 73 -30 c40 -16 90 -35 110 -43 29 -10 40 -21 52
-54 9 -22 16 -47 16 -55 0 -8 -19 -61 -42 -118 l-42 -102 29 -27 c17 -14 47
-42 67 -61 l37 -35 58 23 c32 13 79 34 105 47 l47 23 56 -24 c30 -14 55 -30
55 -36 0 -6 20 -53 44 -105 l45 -95 80 0 c57 0 84 4 94 15 8 8 32 57 52 109
37 93 39 95 86 115 l49 20 100 -40 c56 -21 109 -39 119 -39 9 0 43 26 75 59
l58 59 -47 105 -47 106 17 45 c21 53 24 57 90 81 28 10 74 29 103 43 l52 24 0
88 0 87 -112 44 c-112 44 -113 44 -132 91 l-20 48 42 102 c23 57 42 108 42
113 0 6 -26 37 -59 69 -67 66 -54 66 -194 5 l-88 -38 -52 23 c-50 22 -53 26
-80 98 -16 42 -37 90 -48 107 -19 31 -19 31 -104 31 -82 0 -85 -1 -98 -27z
m218 -531 c154 -79 189 -272 73 -398 -44 -48 -124 -84 -187 -84 -93 0 -191 62
-232 147 -33 69 -31 165 5 226 31 55 86 101 141 122 53 20 149 14 200 -13z"/>
<path d="M1906 1101 c-10 -11 -15 -25 -10 -32 4 -7 3 -10 -4 -5 -6 3 -16 -2
-21 -12 -19 -35 -60 -34 -109 4 l-44 33 -34 -22 c-35 -22 -35 -22 -29 -78 9
-75 -5 -97 -66 -105 -61 -8 -67 -13 -75 -60 -5 -36 -3 -42 21 -58 74 -48 81
-78 34 -138 l-32 -39 18 -40 c19 -41 24 -43 90 -30 60 11 82 -7 91 -75 5 -46
11 -57 31 -65 44 -16 61 -10 94 36 40 55 67 58 126 15 l41 -30 36 21 c39 23
39 23 27 88 -13 65 5 88 75 97 53 6 54 7 65 47 11 41 10 42 -28 74 -21 18 -41
33 -45 33 -20 0 -5 63 23 104 l32 44 -22 36 c-13 20 -24 36 -25 36 -2 0 -27
-5 -56 -10 -67 -13 -87 2 -96 71 -7 54 -15 64 -60 73 -23 5 -34 2 -48 -13z
m17 -245 c79 -32 97 -145 33 -205 -30 -28 -100 -38 -136 -19 -34 19 -70 75
-70 112 0 43 34 94 73 111 41 18 60 18 100 1z"/>
</g>
</svg>
