<svg width="40" height="42" viewBox="0 0 40 42" fill="none" xmlns="http://www.w3.org/2000/svg"><rect width="40" height="41.349" rx="20" fill="#FF3E79"/><path fill-rule="evenodd" clip-rule="evenodd" d="m12.76 24.034 2.54-.3c.61-.073 1.21.144 1.64.589l1.84 1.902a15.308 15.308 0 0 0 6.59-6.812L23.52 17.5a2.1 2.1 0 0 1-.57-1.695l.29-2.605c.12-1.044.97-1.83 1.99-1.83h1.73c1.13 0 2.07.972 2 2.14-.53 8.828-7.36 15.878-15.89 16.426-1.13.073-2.07-.9-2.07-2.067V26.08c-.01-1.044.75-1.922 1.76-2.046Z" fill="#fff"/></svg>