<?xml version="1.0" standalone="no"?>
<!DOCTYPE svg PUBLIC "-//W3C//DTD SVG 20010904//EN"
 "http://www.w3.org/TR/2001/REC-SVG-20010904/DTD/svg10.dtd">
<svg version="1.0" xmlns="http://www.w3.org/2000/svg"
 width="840.000000pt" height="840.000000pt" viewBox="0 0 840.000000 840.000000"
 preserveAspectRatio="xMidYMid meet">

<g transform="translate(0.000000,840.000000) scale(0.100000,-0.100000)"
fill="#000000" stroke="none">
<path d="M4010 8083 c-631 -43 -1136 -184 -1654 -463 -762 -410 -1368 -1069
-1720 -1870 -125 -284 -211 -575 -266 -895 -44 -258 -55 -395 -54 -670 1 -438
61 -813 193 -1212 299 -902 919 -1665 1741 -2142 762 -444 1669 -618 2525
-485 269 41 454 87 700 171 1317 452 2297 1589 2554 2961 50 266 65 429 65
717 0 600 -121 1139 -376 1675 -461 969 -1324 1720 -2343 2039 -436 136 -957
202 -1365 174z m532 -608 c267 -28 460 -70 713 -153 807 -266 1514 -879 1898
-1647 112 -225 219 -523 271 -755 56 -256 71 -400 70 -720 0 -376 -24 -575
-106 -865 -162 -577 -439 -1055 -852 -1469 -416 -417 -925 -709 -1506 -865
-390 -105 -893 -129 -1330 -65 -214 31 -545 122 -735 201 -413 173 -779 417
-1090 728 -520 520 -843 1173 -942 1905 -25 186 -25 666 0 853 147 1092 818
2031 1803 2525 339 170 749 290 1111 326 187 19 526 19 695 1z"/>
<path d="M3995 6576 c-152 -35 -255 -95 -360 -208 -123 -133 -183 -301 -172
-488 13 -249 151 -455 378 -567 103 -51 184 -66 319 -60 166 7 249 38 388 142
148 111 252 324 252 518 0 296 -194 561 -475 647 -90 27 -247 35 -330 16z"/>
<path d="M4055 4765 c-341 -12 -716 -26 -832 -30 l-213 -8 0 -148 0 -147 213
-4 c171 -3 222 -7 262 -22 74 -26 122 -63 145 -111 20 -42 20 -50 18 -1041
l-3 -999 -27 -47 c-20 -33 -41 -52 -75 -69 -49 -24 -33 -22 -465 -38 -16 -1
-18 -15 -18 -151 l0 -150 1170 0 1170 0 0 149 0 148 -52 7 c-29 3 -103 6 -165
6 -186 0 -282 32 -319 107 -18 37 -19 88 -22 1306 l-2 1267 -83 -1 c-45 -1
-361 -12 -702 -24z"/>
</g>
</svg>
