<svg width="40" height="42" viewBox="0 0 40 42" fill="none" xmlns="http://www.w3.org/2000/svg"><rect width="40" height="41.349" rx="20" fill="#FF3E79"/><path fill-rule="evenodd" clip-rule="evenodd" d="M28 11.37H12c-1.1 0-1.99.93-1.99 2.068L10 32.045l4-5.169h14c1.1 0 2-.93 2-2.067V13.438c0-1.137-.9-2.068-2-2.068Zm-7 11.372h-6c-.55 0-1-.465-1-1.034 0-.568.45-1.033 1-1.033h6c.55 0 1 .465 1 1.033 0 .569-.45 1.034-1 1.034Zm4-5.169H15c-.55 0-1-.465-1-1.033 0-.569.45-1.034 1-1.034h10c.55 0 1 .465 1 1.034 0 .568-.45 1.033-1 1.033Z" fill="#fff"/></svg>