<svg version="1.0" xmlns="http://www.w3.org/2000/svg" width="300" height="300" viewBox="0 0 225 225"><path d="M69.7 36.7c-.8 1.6-2.7 6.2-4.2 10.3-1.5 4.1-3.2 7.9-3.6 8.4-.5.6-2.9 1.8-5.4 2.7L52 59.8l-9.6-3.9C37.1 53.8 32 52 31.1 52 29.1 52 18 62.8 18 64.7c0 .7 1.8 5.3 4 10.2C26.5 85 26.6 85 24.4 90.5c-1.4 3.9-2 4.3-12.2 8.6l-10.7 4.4-.3 9.1-.3 9.2 7.3 3c4 1.6 9 3.5 11 4.3 2.9 1 4 2.1 5.2 5.4.9 2.2 1.6 4.7 1.6 5.5 0 .8-1.9 6.1-4.2 11.8L17.6 162l2.9 2.7c1.7 1.4 4.7 4.2 6.7 6.1l3.7 3.5 5.8-2.3c3.2-1.3 7.9-3.4 10.5-4.7l4.7-2.3 5.6 2.4c3 1.4 5.5 3 5.5 3.6 0 .6 2 5.3 4.4 10.5l4.5 9.5h8c5.7 0 8.4-.4 9.4-1.5.8-.8 3.2-5.7 5.2-10.9 3.7-9.3 3.9-9.5 8.6-11.5l4.9-2 10 4c5.6 2.1 10.9 3.9 11.9 3.9.9 0 4.3-2.6 7.5-5.9l5.8-5.9-4.7-10.5-4.7-10.6 1.7-4.5c2.1-5.3 2.4-5.7 9-8.1 2.8-1 7.4-2.9 10.3-4.3l5.2-2.4v-17.5l-11.2-4.4c-11.2-4.4-11.3-4.4-13.2-9.1l-2-4.8 4.2-10.2c2.3-5.7 4.2-10.8 4.2-11.3 0-.6-2.6-3.7-5.9-6.9-6.7-6.6-5.4-6.6-19.4-.5l-8.8 3.8-5.2-2.3c-5-2.2-5.3-2.6-8-9.8-1.6-4.2-3.7-9-4.8-10.7C88 34 88 34 79.5 34c-8.2 0-8.5.1-9.8 2.7zm21.8 53.1c15.4 7.9 18.9 27.2 7.3 39.8-4.4 4.8-12.4 8.4-18.7 8.4-9.3 0-19.1-6.2-23.2-14.7-3.3-6.9-3.1-16.5.5-22.6 3.1-5.5 8.6-10.1 14.1-12.2 5.3-2 14.9-1.4 20 1.3z"/><path d="M190.6 114.9c-1 1.1-1.5 2.5-1 3.2.4.7.3 1-.4.5-.6-.3-1.6.2-2.1 1.2-1.9 3.5-6 3.4-10.9-.4l-4.4-3.3-3.4 2.2c-3.5 2.2-3.5 2.2-2.9 7.8.9 7.5-.5 9.7-6.6 10.5-6.1.8-6.7 1.3-7.5 6-.5 3.6-.3 4.2 2.1 5.8 7.4 4.8 8.1 7.8 3.4 13.8l-3.2 3.9 1.8 4c1.9 4.1 2.4 4.3 9 3 6-1.1 8.2.7 9.1 7.5.5 4.6 1.1 5.7 3.1 6.5 4.4 1.6 6.1 1 9.4-3.6 4-5.5 6.7-5.8 12.6-1.5l4.1 3 3.6-2.1c3.9-2.3 3.9-2.3 2.7-8.8-1.3-6.5.5-8.8 7.5-9.7 5.3-.6 5.4-.7 6.5-4.7 1.1-4.1 1-4.2-2.8-7.4-2.1-1.8-4.1-3.3-4.5-3.3-2 0-.5-6.3 2.3-10.4l3.2-4.4-2.2-3.6c-1.3-2-2.4-3.6-2.5-3.6-.2 0-2.7.5-5.6 1-6.7 1.3-8.7-.2-9.6-7.1-.7-5.4-1.5-6.4-6-7.3-2.3-.5-3.4-.2-4.8 1.3zm1.7 24.5c7.9 3.2 9.7 14.5 3.3 20.5-3 2.8-10 3.8-13.6 1.9-3.4-1.9-7-7.5-7-11.2 0-4.3 3.4-9.4 7.3-11.1 4.1-1.8 6-1.8 10-.1z"/></svg>